{
  "accessors": [
    {
      "bufferView": 2,
      "componentType": 5126,
      "count": 65532,
      "max": [
        7.628042221069336,
        3.185286045074463,
        6.719050407409668
      ],
      "min": [
        1.208005666732788,
        0.0,
        0.0
      ],
      "type": "VEC3"
    },
    {
      "bufferView": 2,
      "byteOffset": 786384,
      "componentType": 5126,
      "count": 65532,
      "max": [
        0.9996939897537231,
        0.99995356798172,
        1.0
      ],
      "min": [
        -0.9999264478683472,
        -0.9999983310699463,
        -1.0
      ],
      "type": "VEC3"
    },
    {
      "bufferView": 1,
      "componentType": 5126,
      "count": 65532,
      "max": [
        0.9985349774360657,
        0.99754798412323
      ],
      "min": [
        0.0014649999793618917,
        0.002452000044286251
      ],
      "type": "VEC2"
    },
    {
      "bufferView": 0,
      "componentType": 5125,
      "count": 341292,
      "type": "SCALAR"
    },
    {
      "bufferView": 2,
      "byteOffset": 1572768,
      "componentType": 5126,
      "count": 65532,
      "max": [
        5.200771808624268,
        2.9379446506500244,
        6.690024375915527
      ],
      "min": [
        0.0,
        0.677496075630188,
        0.011886358261108398
      ],
      "type": "VEC3"
    },
    {
      "bufferView": 2,
      "byteOffset": 2359152,
      "componentType": 5126,
      "count": 65532,
      "max": [
        0.9970256686210632,
        1.0,
        0.9999218583106995
      ],
      "min": [
        -0.9999127388000488,
        -0.9999992251396179,
        -0.9999784827232361
      ],
      "type": "VEC3"
    },
    {
      "bufferView": 1,
      "byteOffset": 524256,
      "componentType": 5126,
      "count": 65532,
      "max": [
        0.9985349774360657,
        0.99754798412323
      ],
      "min": [
        0.0014649999793618917,
        0.002452000044286251
      ],
      "type": "VEC2"
    },
    {
      "bufferView": 0,
      "byteOffset": 1365168,
      "componentType": 5125,
      "count": 344127,
      "type": "SCALAR"
    },
    {
      "bufferView": 2,
      "byteOffset": 3145536,
      "componentType": 5126,
      "count": 65532,
      "max": [
        7.371347427368164,
        3.168152332305908,
        4.765824794769287
      ],
      "min": [
        0.010576009750366211,
        0.75531005859375,
        0.042227745056152344
      ],
      "type": "VEC3"
    },
    {
      "bufferView": 2,
      "byteOffset": 3931920,
      "componentType": 5126,
      "count": 65532,
      "max": [
        0.9999570250511169,
        0.9997394680976868,
        0.9998365044593811
      ],
      "min": [
        -0.9998940229415894,
        -0.9999996423721313,
        -0.9999879002571106
      ],
      "type": "VEC3"
    },
    {
      "bufferView": 1,
      "byteOffset": 1048512,
      "componentType": 5126,
      "count": 65532,
      "max": [
        0.9985349774360657,
        0.99754798412323
      ],
      "min": [
        0.0014649999793618917,
        0.002452000044286251
      ],
      "type": "VEC2"
    },
    {
      "bufferView": 0,
      "byteOffset": 2741676,
      "componentType": 5125,
      "count": 346374,
      "type": "SCALAR"
    },
    {
      "bufferView": 2,
      "byteOffset": 4718304,
      "componentType": 5126,
      "count": 65532,
      "max": [
        7.63961124420166,
        3.1916043758392334,
        6.723360061645508
      ],
      "min": [
        0.1357715129852295,
        0.7900991439819336,
        1.7668068408966064
      ],
      "type": "VEC3"
    },
    {
      "bufferView": 2,
      "byteOffset": 5504688,
      "componentType": 5126,
      "count": 65532,
      "max": [
        0.999990701675415,
        0.9998366236686707,
        0.999912440776825
      ],
      "min": [
        -0.9999840259552002,
        -0.9999996423721313,
        -0.9999210238456726
      ],
      "type": "VEC3"
    },
    {
      "bufferView": 1,
      "byteOffset": 1572768,
      "componentType": 5126,
      "count": 65532,
      "max": [
        0.998291015625,
        0.99754798412323
      ],
      "min": [
        0.0014649999793618917,
        0.002452000044286251
      ],
      "type": "VEC2"
    },
    {
      "bufferView": 0,
      "byteOffset": 4127172,
      "componentType": 5125,
      "count": 339276,
      "type": "SCALAR"
    },
    {
      "bufferView": 2,
      "byteOffset": 6291072,
      "componentType": 5126,
      "count": 65532,
      "max": [
        5.342042922973633,
        2.8823187351226807,
        6.701596260070801
      ],
      "min": [
        0.6822876930236816,
        1.03506338596344,
        0.2665822505950928
      ],
      "type": "VEC3"
    },
    {
      "bufferView": 2,
      "byteOffset": 7077456,
      "componentType": 5126,
      "count": 65532,
      "max": [
        0.9998852610588074,
        0.9997941255569458,
        0.999993622303009
      ],
      "min": [
        -0.9999531507492065,
        -0.999980628490448,
        -0.9999984502792358
      ],
      "type": "VEC3"
    },
    {
      "bufferView": 1,
      "byteOffset": 2097024,
      "componentType": 5126,
      "count": 65532,
      "max": [
        0.9985349774360657,
        0.99754798412323
      ],
      "min": [
        0.0014649999793618917,
        0.010576000437140465
      ],
      "type": "VEC2"
    },
    {
      "bufferView": 0,
      "byteOffset": 5484276,
      "componentType": 5125,
      "count": 344388,
      "type": "SCALAR"
    },
    {
      "bufferView": 2,
      "byteOffset": 7863840,
      "componentType": 5126,
      "count": 65532,
      "max": [
        6.000173568725586,
        2.992065191268921,
        6.154781341552734
      ],
      "min": [
        1.5154356956481934,
        0.004868030548095703,
        0.46070361137390137
      ],
      "type": "VEC3"
    },
    {
      "bufferView": 2,
      "byteOffset": 8650224,
      "componentType": 5126,
      "count": 65532,
      "max": [
        0.9997997879981995,
        0.9999760985374451,
        0.9999247789382935
      ],
      "min": [
        -0.9999926686286926,
        -0.9999895691871643,
        -1.0
      ],
      "type": "VEC3"
    },
    {
      "bufferView": 1,
      "byteOffset": 2621280,
      "componentType": 5126,
      "count": 65532,
      "max": [
        0.998291015625,
        0.99754798412323
      ],
      "min": [
        0.0029299999587237835,
        0.002452000044286251
      ],
      "type": "VEC2"
    },
    {
      "bufferView": 0,
      "byteOffset": 6861828,
      "componentType": 5125,
      "count": 344835,
      "type": "SCALAR"
    },
    {
      "bufferView": 2,
      "byteOffset": 9436608,
      "componentType": 5126,
      "count": 12674,
      "max": [
        5.754715919494629,
        2.6155221462249756,
        5.855381965637207
      ],
      "min": [
        1.2468867301940918,
        1.5945221185684204,
        0.5597968101501465
      ],
      "type": "VEC3"
    },
    {
      "bufferView": 2,
      "byteOffset": 9588696,
      "componentType": 5126,
      "count": 12674,
      "max": [
        0.9999903440475464,
        0.9986453056335449,
        0.9997826814651489
      ],
      "min": [
        -0.9999834895133972,
        -0.9999879002571106,
        -0.9997512102127075
      ],
      "type": "VEC3"
    },
    {
      "bufferView": 1,
      "byteOffset": 3145536,
      "componentType": 5126,
      "count": 12674,
      "max": [
        0.9665529727935791,
        0.9971389770507813
      ],
      "min": [
        0.010010000318288803,
        0.13158999383449554
      ],
      "type": "VEC2"
    },
    {
      "bufferView": 0,
      "byteOffset": 8241168,
      "componentType": 5125,
      "count": 60810,
      "type": "SCALAR"
    }
  ],
  "asset": {
    "extras": {
      "author": "Moshe Caine (https://sketchfab.com/mosheca)",
      "license": "CC-BY-4.0 (http://creativecommons.org/licenses/by/4.0/)",
      "source": "https://sketchfab.com/3d-models/vegetable-basket-51f604ebf65446309b94780fc4653f34",
      "title": "Vegetable Basket"
    },
    "generator": "Sketchfab-12.68.0",
    "version": "2.0"
  },
  "bufferViews": [
    {
      "buffer": 0,
      "byteLength": 8484408,
      "name": "floatBufferViews",
      "target": 34963
    },
    {
      "buffer": 0,
      "byteLength": 3246928,
      "byteOffset": 8484408,
      "byteStride": 8,
      "name": "floatBufferViews",
      "target": 34962
    },
    {
      "buffer": 0,
      "byteLength": 9740784,
      "byteOffset": 11731336,
      "byteStride": 12,
      "name": "floatBufferViews",
      "target": 34962
    }
  ],
  "buffers": [
    {
      "byteLength": 21472120,
      "uri": "scene.bin"
    }
  ],
  "images": [
    {
      "uri": "textures/Material_0_baseColor.jpeg"
    }
  ],
  "materials": [
    {
      "doubleSided": true,
      "name": "Material_0",
      "pbrMetallicRoughness": {
        "baseColorTexture": {
          "index": 0
        },
        "metallicFactor": 0.0,
        "roughnessFactor": 0.6
      }
    }
  ],
  "meshes": [
    {
      "name": "Object_0",
      "primitives": [
        {
          "attributes": {
            "NORMAL": 1,
            "POSITION": 0,
            "TEXCOORD_0": 2
          },
          "indices": 3,
          "material": 0,
          "mode": 4
        }
      ]
    },
    {
      "name": "Object_1",
      "primitives": [
        {
          "attributes": {
            "NORMAL": 5,
            "POSITION": 4,
            "TEXCOORD_0": 6
          },
          "indices": 7,
          "material": 0,
          "mode": 4
        }
      ]
    },
    {
      "name": "Object_2",
      "primitives": [
        {
          "attributes": {
            "NORMAL": 9,
            "POSITION": 8,
            "TEXCOORD_0": 10
          },
          "indices": 11,
          "material": 0,
          "mode": 4
        }
      ]
    },
    {
      "name": "Object_3",
      "primitives": [
        {
          "attributes": {
            "NORMAL": 13,
            "POSITION": 12,
            "TEXCOORD_0": 14
          },
          "indices": 15,
          "material": 0,
          "mode": 4
        }
      ]
    },
    {
      "name": "Object_4",
      "primitives": [
        {
          "attributes": {
            "NORMAL": 17,
            "POSITION": 16,
            "TEXCOORD_0": 18
          },
          "indices": 19,
          "material": 0,
          "mode": 4
        }
      ]
    },
    {
      "name": "Object_5",
      "primitives": [
        {
          "attributes": {
            "NORMAL": 21,
            "POSITION": 20,
            "TEXCOORD_0": 22
          },
          "indices": 23,
          "material": 0,
          "mode": 4
        }
      ]
    },
    {
      "name": "Object_6",
      "primitives": [
        {
          "attributes": {
            "NORMAL": 25,
            "POSITION": 24,
            "TEXCOORD_0": 26
          },
          "indices": 27,
          "material": 0,
          "mode": 4
        }
      ]
    }
  ],
  "nodes": [
    {
      "children": [
        1
      ],
      "matrix": [
        0.21503722392998448,
        0.017129688856433845,
        3.803554994615564e-18,
        0.0,
        0.017129688856433845,
        -0.21503722392998448,
        -4.774785543170889e-17,
        0.0,
        0.0,
        4.7899110979744746e-17,
        -0.21571841835975647,
        0.0,
        0.04561425745487213,
        4.972847938537596,
        6.119897365570069,
        1.0
      ],
      "name": "Sketchfab_model"
    },
    {
      "children": [
        2,
        3,
        4,
        5,
        6,
        7,
        8
      ],
      "matrix": [
        1.0,
        0.0,
        0.0,
        0.0,
        0.0,
        1.0,
        0.0,
        0.0,
        0.0,
        0.0,
        1.0,
        0.0,
        -3.640655755996704,
        -2.1631081104278564,
        2.1909122467041016,
        1.0
      ],
      "name": "MM.obj.cleaner.gles"
    },
    {
      "mesh": 0,
      "name": "Object_2"
    },
    {
      "mesh": 1,
      "name": "Object_3"
    },
    {
      "mesh": 2,
      "name": "Object_4"
    },
    {
      "mesh": 3,
      "name": "Object_5"
    },
    {
      "mesh": 4,
      "name": "Object_6"
    },
    {
      "mesh": 5,
      "name": "Object_7"
    },
    {
      "mesh": 6,
      "name": "Object_8"
    }
  ],
  "samplers": [
    {
      "magFilter": 9729,
      "minFilter": 9987,
      "wrapS": 10497,
      "wrapT": 10497
    }
  ],
  "scene": 0,
  "scenes": [
    {
      "name": "Sketchfab_Scene",
      "nodes": [
        0
      ]
    }
  ],
  "textures": [
    {
      "sampler": 0,
      "source": 0
    }
  ]
}
